<svg xmlns="http://www.w3.org/2000/svg" width="224.88" viewBox="0 0 224.88 45" height="45" version="1.0"><defs><clipPath id="a"><path d="M 25.558594 6.914062 L 57.492188 6.914062 L 57.492188 38.84375 L 25.558594 38.84375 Z M 25.558594 6.914062"/></clipPath></defs><g clip-path="url(#a)"><path fill="#272A31" d="M 41.527344 9.574219 C 48.84375 9.574219 54.832031 15.5625 54.832031 22.878906 C 54.832031 30.195312 48.84375 36.183594 41.527344 36.183594 C 34.207031 36.183594 28.21875 30.195312 28.21875 22.878906 C 28.21875 15.5625 34.207031 9.574219 41.527344 9.574219 M 41.527344 6.914062 C 32.742188 6.914062 25.558594 14.097656 25.558594 22.878906 C 25.558594 31.660156 32.742188 38.84375 41.527344 38.84375 C 50.304688 38.84375 57.492188 31.660156 57.492188 22.878906 C 57.492188 14.097656 50.304688 6.914062 41.527344 6.914062 Z M 41.527344 6.914062"/></g><path fill="#272A31" d="M 38.996094 20.351562 L 33.542969 30.863281 L 44.054688 25.40625 L 49.507812 14.894531 Z M 41.527344 24.34375 C 40.726562 24.34375 40.0625 23.675781 40.0625 22.878906 C 40.0625 22.078125 40.726562 21.414062 41.527344 21.414062 C 42.320312 21.414062 42.988281 22.078125 42.988281 22.878906 C 42.988281 23.675781 42.320312 24.34375 41.527344 24.34375 Z M 41.527344 24.34375"/><path fill="#272A31" d="M 72.683594 15.300781 C 72.789062 15.363281 72.867188 15.449219 72.917969 15.554688 C 72.972656 15.65625 72.964844 15.773438 72.898438 15.910156 L 71.277344 18.214844 C 71.203125 18.328125 71.121094 18.394531 71.042969 18.410156 C 70.96875 18.425781 70.871094 18.398438 70.753906 18.328125 C 70.4375 18.089844 70.09375 17.910156 69.710938 17.785156 C 69.339844 17.652344 68.941406 17.585938 68.523438 17.585938 C 68 17.585938 67.511719 17.6875 67.070312 17.886719 C 66.625 18.082031 66.246094 18.351562 65.925781 18.703125 C 65.609375 19.046875 65.359375 19.449219 65.175781 19.910156 C 65.003906 20.367188 64.914062 20.855469 64.914062 21.382812 C 64.914062 21.90625 65.003906 22.402344 65.175781 22.863281 C 65.359375 23.320312 65.609375 23.71875 65.925781 24.0625 C 66.246094 24.398438 66.625 24.667969 67.070312 24.867188 C 67.511719 25.070312 68 25.167969 68.523438 25.167969 C 68.941406 25.167969 69.339844 25.101562 69.722656 24.96875 C 70.109375 24.839844 70.457031 24.65625 70.773438 24.417969 C 70.890625 24.34375 70.988281 24.316406 71.0625 24.332031 C 71.136719 24.347656 71.214844 24.402344 71.296875 24.503906 L 72.9375 26.863281 C 73.003906 27 73.011719 27.121094 72.964844 27.21875 C 72.914062 27.3125 72.832031 27.394531 72.71875 27.453125 C 72.121094 27.859375 71.472656 28.175781 70.78125 28.398438 C 70.085938 28.617188 69.355469 28.726562 68.589844 28.726562 C 67.90625 28.726562 67.253906 28.640625 66.628906 28.464844 C 66.011719 28.292969 65.429688 28.042969 64.886719 27.726562 C 64.34375 27.40625 63.847656 27.027344 63.398438 26.582031 C 62.953125 26.132812 62.574219 25.640625 62.253906 25.101562 C 61.9375 24.558594 61.6875 23.976562 61.515625 23.359375 C 61.339844 22.734375 61.25 22.082031 61.25 21.402344 C 61.25 20.726562 61.339844 20.078125 61.515625 19.453125 C 61.6875 18.828125 61.9375 18.242188 62.253906 17.699219 C 62.574219 17.152344 62.953125 16.65625 63.398438 16.210938 C 63.847656 15.761719 64.34375 15.375 64.886719 15.058594 C 65.429688 14.738281 66.011719 14.492188 66.628906 14.316406 C 67.253906 14.144531 67.90625 14.054688 68.589844 14.054688 C 69.355469 14.054688 70.082031 14.164062 70.761719 14.375 C 71.441406 14.585938 72.082031 14.894531 72.683594 15.300781 Z M 72.683594 15.300781"/><path fill="#272A31" d="M 75.347656 14.699219 C 75.347656 14.570312 75.382812 14.464844 75.453125 14.382812 C 75.519531 14.304688 75.625 14.261719 75.769531 14.261719 L 81.964844 14.261719 C 82.625 14.261719 83.242188 14.386719 83.820312 14.636719 C 84.394531 14.878906 84.890625 15.214844 85.316406 15.636719 C 85.75 16.058594 86.085938 16.550781 86.328125 17.117188 C 86.578125 17.6875 86.703125 18.289062 86.703125 18.925781 C 86.703125 19.363281 86.644531 19.78125 86.527344 20.171875 C 86.40625 20.566406 86.242188 20.9375 86.03125 21.277344 C 85.824219 21.617188 85.574219 21.925781 85.28125 22.207031 C 84.992188 22.484375 84.671875 22.71875 84.324219 22.917969 L 86.796875 27.566406 C 86.839844 27.65625 86.898438 27.761719 86.96875 27.882812 C 87.035156 28.003906 87.070312 28.105469 87.070312 28.195312 C 87.070312 28.300781 87.035156 28.382812 86.96875 28.4375 C 86.902344 28.488281 86.8125 28.511719 86.695312 28.511719 L 83.40625 28.511719 C 83.296875 28.511719 83.203125 28.480469 83.117188 28.417969 C 83.027344 28.359375 82.972656 28.269531 82.949219 28.15625 L 80.613281 23.769531 L 79.058594 23.769531 L 79.058594 28.101562 C 79.058594 28.375 78.910156 28.511719 78.617188 28.511719 L 75.769531 28.511719 C 75.640625 28.511719 75.535156 28.480469 75.460938 28.410156 C 75.386719 28.339844 75.347656 28.238281 75.347656 28.101562 Z M 82.863281 18.964844 C 82.863281 18.773438 82.824219 18.582031 82.75 18.394531 C 82.679688 18.199219 82.582031 18.023438 82.449219 17.867188 C 82.324219 17.707031 82.171875 17.574219 81.992188 17.464844 C 81.816406 17.351562 81.617188 17.28125 81.402344 17.25 C 81.21875 17.238281 81.050781 17.230469 80.894531 17.222656 C 80.738281 17.210938 80.570312 17.203125 80.390625 17.203125 L 79.058594 17.203125 L 79.058594 20.726562 L 80.828125 20.726562 C 80.941406 20.726562 81.039062 20.722656 81.128906 20.714844 C 81.222656 20.703125 81.320312 20.691406 81.429688 20.679688 C 81.652344 20.65625 81.851562 20.59375 82.027344 20.492188 C 82.210938 20.386719 82.359375 20.253906 82.480469 20.097656 C 82.601562 19.9375 82.695312 19.757812 82.761719 19.5625 C 82.828125 19.371094 82.863281 19.171875 82.863281 18.964844 Z M 82.863281 18.964844"/><path fill="#272A31" d="M 94.054688 19.527344 L 96.378906 14.558594 C 96.417969 14.484375 96.445312 14.433594 96.472656 14.402344 C 96.496094 14.363281 96.523438 14.335938 96.546875 14.316406 C 96.570312 14.296875 96.597656 14.289062 96.621094 14.289062 C 96.652344 14.285156 96.691406 14.273438 96.734375 14.261719 L 100.425781 14.261719 C 100.46875 14.261719 100.503906 14.277344 100.53125 14.308594 C 100.558594 14.339844 100.578125 14.375 100.578125 14.410156 C 100.578125 14.480469 100.53125 14.558594 100.445312 14.644531 L 95.902344 22.695312 L 95.902344 28.0625 C 95.902344 28.363281 95.75 28.511719 95.449219 28.511719 L 92.574219 28.511719 C 92.449219 28.511719 92.347656 28.472656 92.273438 28.390625 C 92.203125 28.3125 92.171875 28.199219 92.171875 28.0625 L 92.171875 22.675781 L 87.636719 14.644531 C 87.554688 14.566406 87.515625 14.484375 87.515625 14.410156 C 87.515625 14.375 87.527344 14.339844 87.550781 14.308594 C 87.574219 14.277344 87.609375 14.261719 87.65625 14.261719 L 91.347656 14.261719 C 91.390625 14.273438 91.425781 14.285156 91.449219 14.289062 C 91.480469 14.289062 91.507812 14.296875 91.535156 14.316406 C 91.558594 14.335938 91.582031 14.363281 91.609375 14.402344 C 91.632812 14.433594 91.667969 14.484375 91.710938 14.558594 Z M 94.054688 19.527344"/><path fill="#272A31" d="M 102.164062 14.699219 C 102.164062 14.570312 102.199219 14.464844 102.269531 14.382812 C 102.34375 14.304688 102.449219 14.261719 102.585938 14.261719 L 108.722656 14.261719 C 109.160156 14.261719 109.570312 14.324219 109.960938 14.449219 C 110.355469 14.566406 110.710938 14.734375 111.039062 14.953125 C 111.367188 15.167969 111.667969 15.421875 111.929688 15.722656 C 112.191406 16.015625 112.410156 16.339844 112.59375 16.6875 C 112.773438 17.03125 112.914062 17.394531 113.007812 17.773438 C 113.105469 18.15625 113.15625 18.539062 113.15625 18.925781 C 113.15625 19.503906 113.046875 20.066406 112.835938 20.613281 C 112.632812 21.164062 112.332031 21.652344 111.945312 22.085938 C 111.566406 22.515625 111.105469 22.867188 110.570312 23.132812 C 110.03125 23.394531 109.4375 23.53125 108.789062 23.535156 L 105.882812 23.535156 L 105.882812 28.101562 C 105.882812 28.375 105.738281 28.511719 105.445312 28.511719 L 102.585938 28.511719 C 102.460938 28.511719 102.355469 28.480469 102.277344 28.410156 C 102.203125 28.339844 102.164062 28.238281 102.164062 28.101562 Z M 109.390625 18.90625 C 109.390625 18.714844 109.355469 18.523438 109.285156 18.335938 C 109.222656 18.144531 109.125 17.972656 108.996094 17.820312 C 108.867188 17.671875 108.71875 17.550781 108.535156 17.457031 C 108.355469 17.359375 108.148438 17.304688 107.917969 17.304688 L 105.882812 17.304688 L 105.882812 20.511719 L 107.917969 20.511719 C 108.148438 20.511719 108.355469 20.464844 108.535156 20.371094 C 108.722656 20.277344 108.878906 20.160156 109.003906 20.015625 C 109.128906 19.863281 109.222656 19.695312 109.285156 19.507812 C 109.355469 19.316406 109.390625 19.113281 109.390625 18.90625 Z M 109.390625 18.90625"/><path fill="#272A31" d="M 114.457031 14.683594 C 114.457031 14.558594 114.5 14.457031 114.589844 14.382812 C 114.675781 14.304688 114.78125 14.261719 114.90625 14.261719 L 125.242188 14.261719 C 125.355469 14.261719 125.453125 14.296875 125.542969 14.375 C 125.636719 14.445312 125.6875 14.546875 125.699219 14.683594 L 125.699219 17.070312 C 125.699219 17.191406 125.660156 17.304688 125.578125 17.410156 C 125.496094 17.515625 125.382812 17.566406 125.242188 17.566406 L 121.933594 17.566406 L 121.933594 28.0625 C 121.933594 28.175781 121.890625 28.277344 121.804688 28.371094 C 121.722656 28.464844 121.609375 28.511719 121.476562 28.511719 L 118.65625 28.511719 C 118.546875 28.511719 118.445312 28.46875 118.34375 28.382812 C 118.25 28.292969 118.203125 28.1875 118.203125 28.0625 L 118.203125 17.566406 L 114.90625 17.566406 C 114.78125 17.566406 114.675781 17.527344 114.589844 17.445312 C 114.5 17.359375 114.457031 17.234375 114.457031 17.070312 Z M 114.457031 14.683594"/><path fill="#272A31" d="M 131.046875 21.390625 C 131.046875 21.921875 131.136719 22.417969 131.320312 22.882812 C 131.5 23.34375 131.75 23.746094 132.070312 24.089844 C 132.390625 24.425781 132.777344 24.695312 133.222656 24.894531 C 133.664062 25.089844 134.152344 25.1875 134.683594 25.1875 C 135.210938 25.1875 135.699219 25.089844 136.144531 24.894531 C 136.585938 24.695312 136.96875 24.425781 137.289062 24.089844 C 137.613281 23.746094 137.863281 23.34375 138.046875 22.882812 C 138.226562 22.417969 138.320312 21.921875 138.320312 21.390625 C 138.320312 20.867188 138.226562 20.375 138.046875 19.910156 C 137.863281 19.449219 137.613281 19.046875 137.289062 18.703125 C 136.96875 18.351562 136.585938 18.082031 136.144531 17.886719 C 135.699219 17.6875 135.210938 17.585938 134.683594 17.585938 C 134.152344 17.585938 133.664062 17.6875 133.222656 17.886719 C 132.777344 18.082031 132.390625 18.351562 132.070312 18.703125 C 131.75 19.046875 131.5 19.449219 131.320312 19.910156 C 131.136719 20.375 131.046875 20.867188 131.046875 21.390625 Z M 127.347656 21.402344 C 127.347656 20.726562 127.433594 20.078125 127.609375 19.453125 C 127.78125 18.828125 128.03125 18.242188 128.347656 17.699219 C 128.667969 17.152344 129.046875 16.65625 129.492188 16.210938 C 129.933594 15.761719 130.429688 15.375 130.972656 15.058594 C 131.515625 14.738281 132.101562 14.492188 132.726562 14.316406 C 133.347656 14.144531 134 14.054688 134.683594 14.054688 C 135.351562 14.054688 135.996094 14.144531 136.621094 14.316406 C 137.253906 14.492188 137.839844 14.738281 138.382812 15.058594 C 138.929688 15.375 139.421875 15.761719 139.863281 16.210938 C 140.316406 16.65625 140.699219 17.152344 141.015625 17.699219 C 141.335938 18.242188 141.582031 18.828125 141.757812 19.453125 C 141.929688 20.078125 142.019531 20.726562 142.019531 21.402344 C 142.019531 22.082031 141.929688 22.734375 141.757812 23.359375 C 141.582031 23.976562 141.335938 24.558594 141.015625 25.101562 C 140.699219 25.640625 140.316406 26.132812 139.863281 26.582031 C 139.421875 27.027344 138.929688 27.40625 138.382812 27.726562 C 137.839844 28.042969 137.253906 28.292969 136.621094 28.464844 C 135.996094 28.640625 135.351562 28.726562 134.683594 28.726562 C 134 28.726562 133.347656 28.640625 132.726562 28.464844 C 132.101562 28.292969 131.515625 28.042969 130.972656 27.726562 C 130.429688 27.40625 129.933594 27.027344 129.492188 26.582031 C 129.046875 26.132812 128.667969 25.640625 128.347656 25.101562 C 128.03125 24.558594 127.78125 23.976562 127.609375 23.359375 C 127.433594 22.734375 127.347656 22.082031 127.347656 21.402344 Z M 127.347656 21.402344"/><path fill="#272A31" d="M 144.421875 21.738281 C 144.421875 21.457031 144.5625 21.316406 144.84375 21.316406 L 151.386719 21.316406 C 151.503906 21.316406 151.601562 21.355469 151.683594 21.429688 C 151.765625 21.503906 151.808594 21.605469 151.808594 21.738281 L 151.808594 23.6875 C 151.808594 23.78125 151.769531 23.882812 151.695312 23.988281 C 151.621094 24.09375 151.515625 24.144531 151.386719 24.144531 L 144.84375 24.144531 C 144.5625 24.144531 144.421875 23.992188 144.421875 23.6875 Z M 144.421875 21.738281"/><path fill="#272A31" d="M 165.789062 15.300781 C 165.894531 15.363281 165.972656 15.449219 166.023438 15.554688 C 166.078125 15.65625 166.070312 15.773438 166.003906 15.910156 L 164.382812 18.214844 C 164.308594 18.328125 164.226562 18.394531 164.148438 18.410156 C 164.074219 18.425781 163.976562 18.398438 163.859375 18.328125 C 163.542969 18.089844 163.199219 17.910156 162.816406 17.785156 C 162.441406 17.652344 162.042969 17.585938 161.628906 17.585938 C 161.101562 17.585938 160.617188 17.6875 160.175781 17.886719 C 159.730469 18.082031 159.351562 18.351562 159.03125 18.703125 C 158.714844 19.046875 158.464844 19.449219 158.28125 19.910156 C 158.105469 20.367188 158.019531 20.855469 158.019531 21.382812 C 158.019531 21.90625 158.105469 22.402344 158.28125 22.863281 C 158.464844 23.320312 158.714844 23.71875 159.03125 24.0625 C 159.351562 24.398438 159.730469 24.667969 160.175781 24.867188 C 160.617188 25.070312 161.101562 25.167969 161.628906 25.167969 C 162.042969 25.167969 162.445312 25.101562 162.828125 24.96875 C 163.214844 24.839844 163.5625 24.65625 163.875 24.417969 C 163.992188 24.34375 164.09375 24.316406 164.167969 24.332031 C 164.242188 24.347656 164.320312 24.402344 164.402344 24.503906 L 166.042969 26.863281 C 166.109375 27 166.117188 27.121094 166.070312 27.21875 C 166.019531 27.3125 165.9375 27.394531 165.824219 27.453125 C 165.226562 27.859375 164.578125 28.175781 163.886719 28.398438 C 163.191406 28.617188 162.460938 28.726562 161.695312 28.726562 C 161.011719 28.726562 160.359375 28.640625 159.734375 28.464844 C 159.117188 28.292969 158.535156 28.042969 157.992188 27.726562 C 157.449219 27.40625 156.953125 27.027344 156.503906 26.582031 C 156.058594 26.132812 155.679688 25.640625 155.359375 25.101562 C 155.039062 24.558594 154.792969 23.976562 154.621094 23.359375 C 154.445312 22.734375 154.355469 22.082031 154.355469 21.402344 C 154.355469 20.726562 154.445312 20.078125 154.621094 19.453125 C 154.792969 18.828125 155.039062 18.242188 155.359375 17.699219 C 155.679688 17.152344 156.058594 16.65625 156.503906 16.210938 C 156.953125 15.761719 157.449219 15.375 157.992188 15.058594 C 158.535156 14.738281 159.117188 14.492188 159.734375 14.316406 C 160.359375 14.144531 161.011719 14.054688 161.695312 14.054688 C 162.460938 14.054688 163.1875 14.164062 163.867188 14.375 C 164.546875 14.585938 165.1875 14.894531 165.789062 15.300781 Z M 165.789062 15.300781"/><path fill="#272A31" d="M 171.472656 21.390625 C 171.472656 21.921875 171.558594 22.417969 171.742188 22.882812 C 171.921875 23.34375 172.171875 23.746094 172.492188 24.089844 C 172.816406 24.425781 173.199219 24.695312 173.644531 24.894531 C 174.085938 25.089844 174.574219 25.1875 175.105469 25.1875 C 175.636719 25.1875 176.125 25.089844 176.566406 24.894531 C 177.011719 24.695312 177.394531 24.425781 177.710938 24.089844 C 178.035156 23.746094 178.289062 23.34375 178.46875 22.882812 C 178.652344 22.417969 178.742188 21.921875 178.742188 21.390625 C 178.742188 20.867188 178.652344 20.375 178.46875 19.910156 C 178.289062 19.449219 178.035156 19.046875 177.710938 18.703125 C 177.394531 18.351562 177.011719 18.082031 176.566406 17.886719 C 176.125 17.6875 175.636719 17.585938 175.105469 17.585938 C 174.574219 17.585938 174.085938 17.6875 173.644531 17.886719 C 173.199219 18.082031 172.816406 18.351562 172.492188 18.703125 C 172.171875 19.046875 171.921875 19.449219 171.742188 19.910156 C 171.558594 20.375 171.472656 20.867188 171.472656 21.390625 Z M 167.769531 21.402344 C 167.769531 20.726562 167.855469 20.078125 168.03125 19.453125 C 168.207031 18.828125 168.453125 18.242188 168.773438 17.699219 C 169.089844 17.152344 169.46875 16.65625 169.914062 16.210938 C 170.359375 15.761719 170.851562 15.375 171.394531 15.058594 C 171.941406 14.738281 172.523438 14.492188 173.148438 14.316406 C 173.769531 14.144531 174.425781 14.054688 175.105469 14.054688 C 175.773438 14.054688 176.421875 14.144531 177.046875 14.316406 C 177.675781 14.492188 178.265625 14.738281 178.808594 15.058594 C 179.351562 15.375 179.84375 15.761719 180.289062 16.210938 C 180.738281 16.65625 181.121094 17.152344 181.441406 17.699219 C 181.757812 18.242188 182.003906 18.828125 182.179688 19.453125 C 182.355469 20.078125 182.441406 20.726562 182.441406 21.402344 C 182.441406 22.082031 182.355469 22.734375 182.179688 23.359375 C 182.003906 23.976562 181.757812 24.558594 181.441406 25.101562 C 181.121094 25.640625 180.738281 26.132812 180.289062 26.582031 C 179.84375 27.027344 179.351562 27.40625 178.808594 27.726562 C 178.265625 28.042969 177.675781 28.292969 177.046875 28.464844 C 176.421875 28.640625 175.773438 28.726562 175.105469 28.726562 C 174.425781 28.726562 173.769531 28.640625 173.148438 28.464844 C 172.523438 28.292969 171.941406 28.042969 171.394531 27.726562 C 170.851562 27.40625 170.359375 27.027344 169.914062 26.582031 C 169.46875 26.132812 169.089844 25.640625 168.773438 25.101562 C 168.453125 24.558594 168.207031 23.976562 168.03125 23.359375 C 167.855469 22.734375 167.769531 22.082031 167.769531 21.402344 Z M 167.769531 21.402344"/><path fill="#272A31" d="M 184.828125 14.683594 C 184.828125 14.570312 184.859375 14.472656 184.929688 14.390625 C 185 14.304688 185.105469 14.261719 185.25 14.261719 L 188.386719 14.261719 C 188.476562 14.261719 188.566406 14.285156 188.660156 14.335938 C 188.757812 14.378906 188.84375 14.457031 188.914062 14.558594 C 189.722656 15.871094 190.53125 17.164062 191.332031 18.441406 C 192.128906 19.714844 192.9375 21.003906 193.757812 22.308594 L 193.757812 14.625 C 193.78125 14.511719 193.832031 14.425781 193.90625 14.363281 C 193.988281 14.296875 194.078125 14.261719 194.179688 14.261719 L 196.914062 14.261719 C 197.050781 14.261719 197.164062 14.296875 197.253906 14.375 C 197.339844 14.449219 197.382812 14.550781 197.382812 14.683594 L 197.382812 28.136719 C 197.382812 28.269531 197.347656 28.367188 197.269531 28.429688 C 197.195312 28.484375 197.089844 28.511719 196.953125 28.511719 L 193.898438 28.511719 C 193.808594 28.511719 193.734375 28.484375 193.671875 28.429688 C 193.609375 28.371094 193.542969 28.292969 193.476562 28.195312 C 192.617188 26.789062 191.777344 25.398438 190.945312 24.023438 C 190.113281 22.652344 189.269531 21.257812 188.417969 19.84375 L 188.417969 28.089844 C 188.417969 28.230469 188.382812 28.335938 188.3125 28.410156 C 188.25 28.480469 188.136719 28.511719 187.976562 28.511719 L 185.25 28.511719 C 185.097656 28.511719 184.988281 28.472656 184.921875 28.390625 C 184.859375 28.3125 184.828125 28.210938 184.828125 28.101562 Z M 184.828125 14.683594"/></svg>