<svg xmlns="http://www.w3.org/2000/svg" width="300" viewBox="0 0 300 55.5" height="55.5" version="1.0"><defs><clipPath id="a"><path d="M 1.339844 0.300781 L 56.003906 0.300781 L 56.003906 54.964844 L 1.339844 54.964844 Z M 1.339844 0.300781"/></clipPath></defs><g clip-path="url(#a)"><path fill="#FFF" d="M 28.671875 4.855469 C 41.199219 4.855469 51.449219 15.105469 51.449219 27.632812 C 51.449219 40.160156 41.199219 50.410156 28.671875 50.410156 C 16.144531 50.410156 5.894531 40.160156 5.894531 27.632812 C 5.894531 15.105469 16.144531 4.855469 28.671875 4.855469 M 28.671875 0.300781 C 13.636719 0.300781 1.339844 12.597656 1.339844 27.632812 C 1.339844 42.664062 13.636719 54.964844 28.671875 54.964844 C 43.703125 54.964844 56.003906 42.664062 56.003906 27.632812 C 56.003906 12.597656 43.703125 0.300781 28.671875 0.300781 Z M 28.671875 0.300781"/></g><path fill="#FFF" d="M 24.34375 23.304688 L 15.003906 41.296875 L 33 31.960938 L 42.335938 13.964844 Z M 28.671875 30.136719 C 27.304688 30.136719 26.164062 29 26.164062 27.632812 C 26.164062 26.265625 27.304688 25.125 28.671875 25.125 C 30.039062 25.125 31.175781 26.265625 31.175781 27.632812 C 31.175781 29 30.039062 30.136719 28.671875 30.136719 Z M 28.671875 30.136719"/><g fill="#FFF"><g><g><path d="M 21.25 -22.609375 C 21.4375 -22.503906 21.570312 -22.363281 21.65625 -22.1875 C 21.75 -22.007812 21.734375 -21.800781 21.609375 -21.5625 L 18.828125 -17.625 C 18.710938 -17.4375 18.585938 -17.328125 18.453125 -17.296875 C 18.316406 -17.273438 18.148438 -17.320312 17.953125 -17.4375 C 17.410156 -17.84375 16.816406 -18.15625 16.171875 -18.375 C 15.523438 -18.59375 14.84375 -18.703125 14.125 -18.703125 C 13.226562 -18.703125 12.398438 -18.53125 11.640625 -18.1875 C 10.890625 -17.851562 10.238281 -17.390625 9.6875 -16.796875 C 9.144531 -16.203125 8.71875 -15.507812 8.40625 -14.71875 C 8.101562 -13.9375 7.953125 -13.097656 7.953125 -12.203125 C 7.953125 -11.304688 8.101562 -10.460938 8.40625 -9.671875 C 8.71875 -8.890625 9.144531 -8.207031 9.6875 -7.625 C 10.238281 -7.039062 10.890625 -6.578125 11.640625 -6.234375 C 12.398438 -5.898438 13.226562 -5.734375 14.125 -5.734375 C 14.84375 -5.734375 15.53125 -5.84375 16.1875 -6.0625 C 16.84375 -6.289062 17.441406 -6.609375 17.984375 -7.015625 C 18.179688 -7.128906 18.34375 -7.175781 18.46875 -7.15625 C 18.601562 -7.132812 18.738281 -7.035156 18.875 -6.859375 L 21.671875 -2.828125 C 21.796875 -2.585938 21.8125 -2.382812 21.71875 -2.21875 C 21.632812 -2.050781 21.5 -1.914062 21.3125 -1.8125 C 20.28125 -1.113281 19.171875 -0.578125 17.984375 -0.203125 C 16.796875 0.171875 15.546875 0.359375 14.234375 0.359375 C 13.078125 0.359375 11.960938 0.210938 10.890625 -0.078125 C 9.828125 -0.378906 8.828125 -0.800781 7.890625 -1.34375 C 6.960938 -1.894531 6.117188 -2.550781 5.359375 -3.3125 C 4.597656 -4.070312 3.941406 -4.910156 3.390625 -5.828125 C 2.847656 -6.753906 2.425781 -7.75 2.125 -8.8125 C 1.832031 -9.882812 1.6875 -11.003906 1.6875 -12.171875 C 1.6875 -13.328125 1.832031 -14.4375 2.125 -15.5 C 2.425781 -16.570312 2.847656 -17.578125 3.390625 -18.515625 C 3.941406 -19.453125 4.597656 -20.300781 5.359375 -21.0625 C 6.117188 -21.832031 6.960938 -22.488281 7.890625 -23.03125 C 8.828125 -23.570312 9.828125 -23.992188 10.890625 -24.296875 C 11.960938 -24.597656 13.078125 -24.75 14.234375 -24.75 C 15.546875 -24.75 16.785156 -24.5625 17.953125 -24.1875 C 19.117188 -23.820312 20.21875 -23.296875 21.25 -22.609375 Z M 21.25 -22.609375" transform="translate(60.746 37.645)"/></g></g></g><g fill="#FFF"><g><g><path d="M 2.671875 -23.625 C 2.671875 -23.851562 2.726562 -24.035156 2.84375 -24.171875 C 2.96875 -24.316406 3.15625 -24.390625 3.40625 -24.390625 L 14 -24.390625 C 15.132812 -24.390625 16.191406 -24.175781 17.171875 -23.75 C 18.160156 -23.332031 19.019531 -22.757812 19.75 -22.03125 C 20.488281 -21.3125 21.066406 -20.46875 21.484375 -19.5 C 21.910156 -18.53125 22.125 -17.5 22.125 -16.40625 C 22.125 -15.65625 22.019531 -14.941406 21.8125 -14.265625 C 21.613281 -13.597656 21.332031 -12.972656 20.96875 -12.390625 C 20.601562 -11.804688 20.171875 -11.273438 19.671875 -10.796875 C 19.179688 -10.316406 18.640625 -9.910156 18.046875 -9.578125 L 22.265625 -1.625 C 22.347656 -1.46875 22.445312 -1.285156 22.5625 -1.078125 C 22.6875 -0.867188 22.75 -0.691406 22.75 -0.546875 C 22.75 -0.367188 22.691406 -0.234375 22.578125 -0.140625 C 22.460938 -0.046875 22.304688 0 22.109375 0 L 16.46875 0 C 16.28125 0 16.113281 -0.0507812 15.96875 -0.15625 C 15.820312 -0.269531 15.726562 -0.421875 15.6875 -0.609375 L 11.6875 -8.109375 L 9.03125 -8.109375 L 9.03125 -0.703125 C 9.03125 -0.234375 8.78125 0 8.28125 0 L 3.40625 0 C 3.1875 0 3.007812 -0.0546875 2.875 -0.171875 C 2.738281 -0.285156 2.671875 -0.460938 2.671875 -0.703125 Z M 15.53125 -16.34375 C 15.53125 -16.664062 15.46875 -16.988281 15.34375 -17.3125 C 15.226562 -17.644531 15.0625 -17.945312 14.84375 -18.21875 C 14.625 -18.5 14.359375 -18.734375 14.046875 -18.921875 C 13.742188 -19.109375 13.40625 -19.226562 13.03125 -19.28125 C 12.726562 -19.300781 12.441406 -19.316406 12.171875 -19.328125 C 11.910156 -19.347656 11.617188 -19.359375 11.296875 -19.359375 L 9.03125 -19.359375 L 9.03125 -13.328125 L 12.046875 -13.328125 C 12.242188 -13.328125 12.421875 -13.332031 12.578125 -13.34375 C 12.734375 -13.363281 12.90625 -13.382812 13.09375 -13.40625 C 13.46875 -13.445312 13.804688 -13.554688 14.109375 -13.734375 C 14.421875 -13.910156 14.679688 -14.132812 14.890625 -14.40625 C 15.097656 -14.675781 15.253906 -14.976562 15.359375 -15.3125 C 15.472656 -15.644531 15.53125 -15.988281 15.53125 -16.34375 Z M 15.53125 -16.34375" transform="translate(83.886 37.645)"/></g></g></g><g fill="#FFF"><g><g><path d="M 11.59375 -15.390625 L 15.5625 -23.875 C 15.632812 -24.007812 15.691406 -24.101562 15.734375 -24.15625 C 15.773438 -24.21875 15.816406 -24.265625 15.859375 -24.296875 C 15.898438 -24.328125 15.945312 -24.34375 16 -24.34375 C 16.050781 -24.351562 16.109375 -24.367188 16.171875 -24.390625 L 22.5 -24.390625 C 22.570312 -24.390625 22.632812 -24.363281 22.6875 -24.3125 C 22.738281 -24.257812 22.765625 -24.203125 22.765625 -24.140625 C 22.765625 -24.015625 22.6875 -23.878906 22.53125 -23.734375 L 14.75 -9.953125 L 14.75 -0.765625 C 14.75 -0.253906 14.492188 0 13.984375 0 L 9.0625 0 C 8.84375 0 8.671875 -0.0664062 8.546875 -0.203125 C 8.429688 -0.335938 8.375 -0.523438 8.375 -0.765625 L 8.375 -9.984375 L 0.609375 -23.734375 C 0.460938 -23.867188 0.390625 -24.003906 0.390625 -24.140625 C 0.390625 -24.203125 0.410156 -24.257812 0.453125 -24.3125 C 0.503906 -24.363281 0.566406 -24.390625 0.640625 -24.390625 L 6.96875 -24.390625 C 7.039062 -24.367188 7.097656 -24.351562 7.140625 -24.34375 C 7.179688 -24.34375 7.222656 -24.328125 7.265625 -24.296875 C 7.316406 -24.265625 7.363281 -24.21875 7.40625 -24.15625 C 7.445312 -24.101562 7.507812 -24.007812 7.59375 -23.875 Z M 11.59375 -15.390625" transform="translate(106.992 37.645)"/></g></g></g><g fill="#FFF"><g><g><path d="M 2.328125 -23.625 C 2.328125 -23.851562 2.382812 -24.035156 2.5 -24.171875 C 2.625 -24.316406 2.804688 -24.390625 3.046875 -24.390625 L 13.546875 -24.390625 C 14.304688 -24.390625 15.019531 -24.285156 15.6875 -24.078125 C 16.351562 -23.867188 16.960938 -23.578125 17.515625 -23.203125 C 18.078125 -22.835938 18.582031 -22.398438 19.03125 -21.890625 C 19.476562 -21.390625 19.859375 -20.84375 20.171875 -20.25 C 20.484375 -19.65625 20.722656 -19.03125 20.890625 -18.375 C 21.054688 -17.726562 21.140625 -17.070312 21.140625 -16.40625 C 21.140625 -15.414062 20.957031 -14.453125 20.59375 -13.515625 C 20.238281 -12.578125 19.734375 -11.738281 19.078125 -11 C 18.421875 -10.269531 17.632812 -9.675781 16.71875 -9.21875 C 15.800781 -8.769531 14.78125 -8.535156 13.65625 -8.515625 L 8.6875 -8.515625 L 8.6875 -0.703125 C 8.6875 -0.234375 8.4375 0 7.9375 0 L 3.046875 0 C 2.828125 0 2.648438 -0.0546875 2.515625 -0.171875 C 2.390625 -0.285156 2.328125 -0.460938 2.328125 -0.703125 Z M 14.703125 -16.4375 C 14.703125 -16.769531 14.644531 -17.097656 14.53125 -17.421875 C 14.414062 -17.753906 14.25 -18.046875 14.03125 -18.296875 C 13.8125 -18.554688 13.546875 -18.769531 13.234375 -18.9375 C 12.921875 -19.101562 12.566406 -19.1875 12.171875 -19.1875 L 8.6875 -19.1875 L 8.6875 -13.703125 L 12.171875 -13.703125 C 12.566406 -13.703125 12.921875 -13.78125 13.234375 -13.9375 C 13.554688 -14.09375 13.820312 -14.296875 14.03125 -14.546875 C 14.25 -14.796875 14.414062 -15.082031 14.53125 -15.40625 C 14.644531 -15.738281 14.703125 -16.082031 14.703125 -16.4375 Z M 14.703125 -16.4375" transform="translate(130.147 37.645)"/></g></g></g><g fill="#FFF"><g><g><path d="M 1.3125 -23.65625 C 1.3125 -23.882812 1.382812 -24.0625 1.53125 -24.1875 C 1.675781 -24.320312 1.859375 -24.390625 2.078125 -24.390625 L 19.765625 -24.390625 C 19.960938 -24.390625 20.140625 -24.328125 20.296875 -24.203125 C 20.453125 -24.085938 20.539062 -23.90625 20.5625 -23.65625 L 20.5625 -19.578125 C 20.5625 -19.378906 20.492188 -19.1875 20.359375 -19 C 20.222656 -18.820312 20.023438 -18.734375 19.765625 -18.734375 L 14.109375 -18.734375 L 14.109375 -0.765625 C 14.109375 -0.566406 14.035156 -0.390625 13.890625 -0.234375 C 13.742188 -0.078125 13.554688 0 13.328125 0 L 8.5 0 C 8.320312 0 8.148438 -0.0703125 7.984375 -0.21875 C 7.816406 -0.363281 7.734375 -0.546875 7.734375 -0.765625 L 7.734375 -18.734375 L 2.078125 -18.734375 C 1.859375 -18.734375 1.675781 -18.804688 1.53125 -18.953125 C 1.382812 -19.097656 1.3125 -19.304688 1.3125 -19.578125 Z M 1.3125 -23.65625" transform="translate(152.203 37.645)"/></g></g></g><g fill="#FFF"><g><g><path d="M 7.84375 -12.1875 C 7.84375 -11.28125 7.992188 -10.429688 8.296875 -9.640625 C 8.609375 -8.847656 9.039062 -8.160156 9.59375 -7.578125 C 10.144531 -6.992188 10.796875 -6.535156 11.546875 -6.203125 C 12.304688 -5.867188 13.144531 -5.703125 14.0625 -5.703125 C 14.96875 -5.703125 15.800781 -5.867188 16.5625 -6.203125 C 17.320312 -6.535156 17.976562 -6.992188 18.53125 -7.578125 C 19.082031 -8.160156 19.507812 -8.847656 19.8125 -9.640625 C 20.125 -10.429688 20.28125 -11.28125 20.28125 -12.1875 C 20.28125 -13.082031 20.125 -13.925781 19.8125 -14.71875 C 19.507812 -15.507812 19.082031 -16.203125 18.53125 -16.796875 C 17.976562 -17.390625 17.320312 -17.851562 16.5625 -18.1875 C 15.800781 -18.53125 14.96875 -18.703125 14.0625 -18.703125 C 13.144531 -18.703125 12.304688 -18.53125 11.546875 -18.1875 C 10.796875 -17.851562 10.144531 -17.390625 9.59375 -16.796875 C 9.039062 -16.203125 8.609375 -15.507812 8.296875 -14.71875 C 7.992188 -13.925781 7.84375 -13.082031 7.84375 -12.1875 Z M 1.515625 -12.171875 C 1.515625 -13.328125 1.660156 -14.4375 1.953125 -15.5 C 2.242188 -16.570312 2.664062 -17.578125 3.21875 -18.515625 C 3.769531 -19.453125 4.425781 -20.300781 5.1875 -21.0625 C 5.945312 -21.832031 6.789062 -22.488281 7.71875 -23.03125 C 8.644531 -23.570312 9.640625 -23.992188 10.703125 -24.296875 C 11.773438 -24.597656 12.894531 -24.75 14.0625 -24.75 C 15.207031 -24.75 16.316406 -24.597656 17.390625 -24.296875 C 18.460938 -23.992188 19.460938 -23.570312 20.390625 -23.03125 C 21.328125 -22.488281 22.175781 -21.832031 22.9375 -21.0625 C 23.707031 -20.300781 24.363281 -19.453125 24.90625 -18.515625 C 25.445312 -17.578125 25.867188 -16.570312 26.171875 -15.5 C 26.472656 -14.4375 26.625 -13.328125 26.625 -12.171875 C 26.625 -11.003906 26.472656 -9.882812 26.171875 -8.8125 C 25.867188 -7.75 25.445312 -6.753906 24.90625 -5.828125 C 24.363281 -4.910156 23.707031 -4.070312 22.9375 -3.3125 C 22.175781 -2.550781 21.328125 -1.894531 20.390625 -1.34375 C 19.460938 -0.800781 18.460938 -0.378906 17.390625 -0.078125 C 16.316406 0.210938 15.207031 0.359375 14.0625 0.359375 C 12.894531 0.359375 11.773438 0.210938 10.703125 -0.078125 C 9.640625 -0.378906 8.644531 -0.800781 7.71875 -1.34375 C 6.789062 -1.894531 5.945312 -2.550781 5.1875 -3.3125 C 4.425781 -4.070312 3.769531 -4.910156 3.21875 -5.828125 C 2.664062 -6.753906 2.242188 -7.75 1.953125 -8.8125 C 1.660156 -9.882812 1.515625 -11.003906 1.515625 -12.171875 Z M 1.515625 -12.171875" transform="translate(174.077 37.645)"/></g></g></g><g fill="#FFF"><g><g><path d="M 2.75 -11.59375 C 2.75 -12.070312 2.988281 -12.3125 3.46875 -12.3125 L 14.671875 -12.3125 C 14.859375 -12.3125 15.023438 -12.25 15.171875 -12.125 C 15.316406 -12 15.390625 -11.820312 15.390625 -11.59375 L 15.390625 -8.265625 C 15.390625 -8.097656 15.320312 -7.921875 15.1875 -7.734375 C 15.0625 -7.554688 14.890625 -7.46875 14.671875 -7.46875 L 3.46875 -7.46875 C 2.988281 -7.46875 2.75 -7.734375 2.75 -8.265625 Z M 2.75 -11.59375" transform="translate(202.077 37.645)"/></g></g></g><g fill="#FFF"><g><g><path d="M 21.25 -22.609375 C 21.4375 -22.503906 21.570312 -22.363281 21.65625 -22.1875 C 21.75 -22.007812 21.734375 -21.800781 21.609375 -21.5625 L 18.828125 -17.625 C 18.710938 -17.4375 18.585938 -17.328125 18.453125 -17.296875 C 18.316406 -17.273438 18.148438 -17.320312 17.953125 -17.4375 C 17.410156 -17.84375 16.816406 -18.15625 16.171875 -18.375 C 15.523438 -18.59375 14.84375 -18.703125 14.125 -18.703125 C 13.226562 -18.703125 12.398438 -18.53125 11.640625 -18.1875 C 10.890625 -17.851562 10.238281 -17.390625 9.6875 -16.796875 C 9.144531 -16.203125 8.71875 -15.507812 8.40625 -14.71875 C 8.101562 -13.9375 7.953125 -13.097656 7.953125 -12.203125 C 7.953125 -11.304688 8.101562 -10.460938 8.40625 -9.671875 C 8.71875 -8.890625 9.144531 -8.207031 9.6875 -7.625 C 10.238281 -7.039062 10.890625 -6.578125 11.640625 -6.234375 C 12.398438 -5.898438 13.226562 -5.734375 14.125 -5.734375 C 14.84375 -5.734375 15.53125 -5.84375 16.1875 -6.0625 C 16.84375 -6.289062 17.441406 -6.609375 17.984375 -7.015625 C 18.179688 -7.128906 18.34375 -7.175781 18.46875 -7.15625 C 18.601562 -7.132812 18.738281 -7.035156 18.875 -6.859375 L 21.671875 -2.828125 C 21.796875 -2.585938 21.8125 -2.382812 21.71875 -2.21875 C 21.632812 -2.050781 21.5 -1.914062 21.3125 -1.8125 C 20.28125 -1.113281 19.171875 -0.578125 17.984375 -0.203125 C 16.796875 0.171875 15.546875 0.359375 14.234375 0.359375 C 13.078125 0.359375 11.960938 0.210938 10.890625 -0.078125 C 9.828125 -0.378906 8.828125 -0.800781 7.890625 -1.34375 C 6.960938 -1.894531 6.117188 -2.550781 5.359375 -3.3125 C 4.597656 -4.070312 3.941406 -4.910156 3.390625 -5.828125 C 2.847656 -6.753906 2.425781 -7.75 2.125 -8.8125 C 1.832031 -9.882812 1.6875 -11.003906 1.6875 -12.171875 C 1.6875 -13.328125 1.832031 -14.4375 2.125 -15.5 C 2.425781 -16.570312 2.847656 -17.578125 3.390625 -18.515625 C 3.941406 -19.453125 4.597656 -20.300781 5.359375 -21.0625 C 6.117188 -21.832031 6.960938 -22.488281 7.890625 -23.03125 C 8.828125 -23.570312 9.828125 -23.992188 10.890625 -24.296875 C 11.960938 -24.597656 13.078125 -24.75 14.234375 -24.75 C 15.546875 -24.75 16.785156 -24.5625 17.953125 -24.1875 C 19.117188 -23.820312 20.21875 -23.296875 21.25 -22.609375 Z M 21.25 -22.609375" transform="translate(220.142 37.645)"/></g></g></g><g fill="#FFF"><g><g><path d="M 7.84375 -12.1875 C 7.84375 -11.28125 7.992188 -10.429688 8.296875 -9.640625 C 8.609375 -8.847656 9.039062 -8.160156 9.59375 -7.578125 C 10.144531 -6.992188 10.796875 -6.535156 11.546875 -6.203125 C 12.304688 -5.867188 13.144531 -5.703125 14.0625 -5.703125 C 14.96875 -5.703125 15.800781 -5.867188 16.5625 -6.203125 C 17.320312 -6.535156 17.976562 -6.992188 18.53125 -7.578125 C 19.082031 -8.160156 19.507812 -8.847656 19.8125 -9.640625 C 20.125 -10.429688 20.28125 -11.28125 20.28125 -12.1875 C 20.28125 -13.082031 20.125 -13.925781 19.8125 -14.71875 C 19.507812 -15.507812 19.082031 -16.203125 18.53125 -16.796875 C 17.976562 -17.390625 17.320312 -17.851562 16.5625 -18.1875 C 15.800781 -18.53125 14.96875 -18.703125 14.0625 -18.703125 C 13.144531 -18.703125 12.304688 -18.53125 11.546875 -18.1875 C 10.796875 -17.851562 10.144531 -17.390625 9.59375 -16.796875 C 9.039062 -16.203125 8.609375 -15.507812 8.296875 -14.71875 C 7.992188 -13.925781 7.84375 -13.082031 7.84375 -12.1875 Z M 1.515625 -12.171875 C 1.515625 -13.328125 1.660156 -14.4375 1.953125 -15.5 C 2.242188 -16.570312 2.664062 -17.578125 3.21875 -18.515625 C 3.769531 -19.453125 4.425781 -20.300781 5.1875 -21.0625 C 5.945312 -21.832031 6.789062 -22.488281 7.71875 -23.03125 C 8.644531 -23.570312 9.640625 -23.992188 10.703125 -24.296875 C 11.773438 -24.597656 12.894531 -24.75 14.0625 -24.75 C 15.207031 -24.75 16.316406 -24.597656 17.390625 -24.296875 C 18.460938 -23.992188 19.460938 -23.570312 20.390625 -23.03125 C 21.328125 -22.488281 22.175781 -21.832031 22.9375 -21.0625 C 23.707031 -20.300781 24.363281 -19.453125 24.90625 -18.515625 C 25.445312 -17.578125 25.867188 -16.570312 26.171875 -15.5 C 26.472656 -14.4375 26.625 -13.328125 26.625 -12.171875 C 26.625 -11.003906 26.472656 -9.882812 26.171875 -8.8125 C 25.867188 -7.75 25.445312 -6.753906 24.90625 -5.828125 C 24.363281 -4.910156 23.707031 -4.070312 22.9375 -3.3125 C 22.175781 -2.550781 21.328125 -1.894531 20.390625 -1.34375 C 19.460938 -0.800781 18.460938 -0.378906 17.390625 -0.078125 C 16.316406 0.210938 15.207031 0.359375 14.0625 0.359375 C 12.894531 0.359375 11.773438 0.210938 10.703125 -0.078125 C 9.640625 -0.378906 8.644531 -0.800781 7.71875 -1.34375 C 6.789062 -1.894531 5.945312 -2.550781 5.1875 -3.3125 C 4.425781 -4.070312 3.769531 -4.910156 3.21875 -5.828125 C 2.664062 -6.753906 2.242188 -7.75 1.953125 -8.8125 C 1.660156 -9.882812 1.515625 -11.003906 1.515625 -12.171875 Z M 1.515625 -12.171875" transform="translate(243.281 37.645)"/></g></g></g><g fill="#FFF"><g><g><path d="M 2.703125 -23.65625 C 2.703125 -23.851562 2.765625 -24.023438 2.890625 -24.171875 C 3.015625 -24.316406 3.195312 -24.390625 3.4375 -24.390625 L 8.796875 -24.390625 C 8.953125 -24.390625 9.113281 -24.347656 9.28125 -24.265625 C 9.445312 -24.191406 9.585938 -24.0625 9.703125 -23.875 C 11.097656 -21.632812 12.476562 -19.421875 13.84375 -17.234375 C 15.207031 -15.054688 16.59375 -12.847656 18 -10.609375 L 18 -23.765625 C 18.039062 -23.960938 18.125 -24.113281 18.25 -24.21875 C 18.382812 -24.332031 18.539062 -24.390625 18.71875 -24.390625 L 23.40625 -24.390625 C 23.632812 -24.390625 23.820312 -24.328125 23.96875 -24.203125 C 24.125 -24.078125 24.203125 -23.894531 24.203125 -23.65625 L 24.203125 -0.640625 C 24.203125 -0.421875 24.132812 -0.257812 24 -0.15625 C 23.875 -0.0507812 23.695312 0 23.46875 0 L 18.234375 0 C 18.085938 0 17.957031 -0.046875 17.84375 -0.140625 C 17.738281 -0.242188 17.625 -0.378906 17.5 -0.546875 C 16.050781 -2.953125 14.613281 -5.332031 13.1875 -7.6875 C 11.757812 -10.039062 10.3125 -12.421875 8.84375 -14.828125 L 8.84375 -0.71875 C 8.84375 -0.476562 8.785156 -0.296875 8.671875 -0.171875 C 8.566406 -0.0546875 8.375 0 8.09375 0 L 3.4375 0 C 3.175781 0 2.988281 -0.0664062 2.875 -0.203125 C 2.757812 -0.335938 2.703125 -0.503906 2.703125 -0.703125 Z M 2.703125 -23.65625" transform="translate(271.281 37.645)"/></g></g></g></svg>