<?xml version="1.0"?>
<svg xmlns="http://www.w3.org/2000/svg" xmlns:xlink="http://www.w3.org/1999/xlink" xmlns:svgjs="http://svgjs.com/svgjs" version="1.1" width="512" height="512" x="0" y="0" viewBox="0 0 512 512" style="enable-background:new 0 0 512 512" xml:space="preserve" class=""><g><g xmlns="http://www.w3.org/2000/svg"><path d="m225 0h-210c-8.284 0-15 6.716-15 15v180c0 8.284 6.716 15 15 15h40.729l25.854 51.708c5.528 11.056 21.305 11.056 26.833 0l25.855-51.708h90.729c8.284 0 15-6.716 15-15v-180c0-8.284-6.716-15-15-15zm-15 180h-85c-5.682 0-10.875 3.21-13.416 8.292l-16.584 33.167-16.584-33.167c-2.541-5.082-7.734-8.292-13.416-8.292h-35v-150h180z" fill="#ffffff" data-original="#000000" class=""/><path d="m145.125 408.338c9.288-11.243 14.875-25.65 14.875-41.338 0-35.841-29.159-65-65-65s-65 29.159-65 65c0 15.688 5.587 30.095 14.875 41.338-26.394 11.625-44.875 38.019-44.875 68.662v20c0 8.284 6.716 15 15 15h160c8.284 0 15-6.716 15-15v-20c0-30.643-18.481-57.037-44.875-68.662zm-50.125-76.338c19.299 0 35 15.701 35 35s-15.701 35-35 35-35-15.701-35-35 15.701-35 35-35zm65 150h-130v-5c0-24.813 20.187-45 45-45h40c24.813 0 45 20.187 45 45z" fill="#ffffff" data-original="#000000" class=""/><path d="m467.125 408.338c9.288-11.243 14.875-25.65 14.875-41.338 0-35.841-29.159-65-65-65s-65 29.159-65 65c0 15.688 5.587 30.095 14.875 41.338-26.394 11.625-44.875 38.019-44.875 68.662v20c0 8.284 6.716 15 15 15h160c8.284 0 15-6.716 15-15v-20c0-30.643-18.481-57.037-44.875-68.662zm-50.125-76.338c19.299 0 35 15.701 35 35s-15.701 35-35 35-35-15.701-35-35 15.701-35 35-35zm65 150h-130v-5c0-24.813 20.187-45 45-45h40c24.813 0 45 20.187 45 45z" fill="#ffffff" data-original="#000000" class=""/><path d="m497 0h-210c-8.284 0-15 6.716-15 15v180c0 8.284 6.716 15 15 15h90.729l25.854 51.708c5.528 11.056 21.305 11.056 26.833 0l25.855-51.708h40.729c8.284 0 15-6.716 15-15v-180c0-8.284-6.716-15-15-15zm-15 180h-35c-5.682 0-10.875 3.21-13.416 8.292l-16.584 33.167-16.584-33.167c-2.541-5.082-7.734-8.292-13.416-8.292h-85v-150h180z" fill="#ffffff" data-original="#000000" class=""/><path d="m347 90h90c8.284 0 15-6.716 15-15s-6.716-15-15-15h-90c-8.284 0-15 6.716-15 15s6.716 15 15 15z" fill="#ffffff" data-original="#000000" class=""/><path d="m347 150h90c8.284 0 15-6.716 15-15s-6.716-15-15-15h-90c-8.284 0-15 6.716-15 15s6.716 15 15 15z" fill="#ffffff" data-original="#000000" class=""/><path d="m75 90h90c8.284 0 15-6.716 15-15s-6.716-15-15-15h-90c-8.284 0-15 6.716-15 15s6.716 15 15 15z" fill="#ffffff" data-original="#000000" class=""/><path d="m75 150h90c8.284 0 15-6.716 15-15s-6.716-15-15-15h-90c-8.284 0-15 6.716-15 15s6.716 15 15 15z" fill="#ffffff" data-original="#000000" class=""/></g></g></svg>
