<?xml version="1.0"?>
<svg xmlns="http://www.w3.org/2000/svg" xmlns:xlink="http://www.w3.org/1999/xlink" xmlns:svgjs="http://svgjs.com/svgjs" version="1.1" width="512" height="512" x="0" y="0" viewBox="0 0 512 512" style="enable-background:new 0 0 512 512" xml:space="preserve" class=""><g><g xmlns="http://www.w3.org/2000/svg"><path d="m497 0h-462c-8.284 0-15 6.716-15 15v60c0 8.284 6.716 15 15 15h15v189.657c-6.348 11.005-10 23.752-10 37.343 0 19.917 7.819 38.031 20.53 51.475-35.392 13.828-60.53 48.295-60.53 88.525v40c0 8.284 6.716 15 15 15h200c8.284 0 15-6.716 15-15v-40c0-25.122-9.806-47.994-25.786-65h262.786c8.284 0 15-6.716 15-15v-287h15c8.284 0 15-6.716 15-15v-60c0-8.284-6.716-15-15-15zm-382 362c-24.813 0-45-20.187-45-45s20.187-45 45-45 45 20.187 45 45-20.187 45-45 45zm85 95v25h-170v-25c0-35.841 29.159-65 65-65h40c35.841 0 65 29.159 65 65zm252-95h-277.041c9.438-12.544 15.041-28.129 15.041-45 0-41.355-33.645-75-75-75-12.636 0-24.544 3.154-35 8.696v-160.696h372zm30-302h-432v-30h432z" fill="#ffffff" data-original="#000000"/><path d="m247 332h160c8.284 0 15-6.716 15-15s-6.716-15-15-15h-5v-145c0-8.284-6.716-15-15-15s-15 6.716-15 15v145h-30v-105c0-8.284-6.716-15-15-15s-15 6.716-15 15v105h-30v-65c0-8.284-6.716-15-15-15s-15 6.716-15 15v65h-5c-8.284 0-15 6.716-15 15s6.716 15 15 15z" fill="#ffffff" data-original="#000000"/><path d="m125 150h60c8.284 0 15-6.716 15-15s-6.716-15-15-15h-60c-8.284 0-15 6.716-15 15s6.716 15 15 15z" fill="#ffffff" data-original="#000000"/><path d="m185 180h-60c-8.284 0-15 6.716-15 15s6.716 15 15 15h60c8.284 0 15-6.716 15-15s-6.716-15-15-15z" fill="#ffffff" data-original="#000000"/></g></g></svg>
