<?xml version="1.0"?>
<svg xmlns="http://www.w3.org/2000/svg" xmlns:xlink="http://www.w3.org/1999/xlink" xmlns:svgjs="http://svgjs.com/svgjs" version="1.1" width="512" height="512" x="0" y="0" viewBox="0 0 512 512" style="enable-background:new 0 0 512 512" xml:space="preserve" class=""><g><g xmlns="http://www.w3.org/2000/svg"><path d="m467.125 408.338c9.288-11.243 14.875-25.65 14.875-41.338 0-35.841-29.159-65-65-65s-65 29.159-65 65c0 15.688 5.587 30.095 14.875 41.338-5.825 2.566-11.26 5.853-16.2 9.745l-54.958-59.955c3.367-6.304 5.283-13.495 5.283-21.128 0-19.555-12.541-36.228-30-42.42v-84.58h65c8.284 0 15-6.716 15-15v-20c0-30.643-18.481-57.036-44.875-68.662 9.288-11.243 14.875-25.65 14.875-41.338 0-35.841-29.159-65-65-65s-65 29.159-65 65c0 15.688 5.587 30.095 14.875 41.338-26.394 11.626-44.875 38.019-44.875 68.662v20c0 8.284 6.716 15 15 15h65v84.58c-17.459 6.192-30 22.865-30 42.42 0 7.633 1.916 14.824 5.284 21.128l-54.958 59.955c-4.94-3.893-10.375-7.179-16.2-9.745 9.287-11.243 14.874-25.65 14.874-41.338 0-35.841-29.159-65-65-65s-65 29.159-65 65c0 15.688 5.587 30.095 14.875 41.338-26.394 11.626-44.875 38.019-44.875 68.662v20c0 8.284 6.716 15 15 15h160c8.284 0 15-6.716 15-15v-20c0-12.972-3.313-25.184-9.134-35.838l57.524-62.754c5.412 2.31 11.363 3.592 17.61 3.592s12.198-1.282 17.61-3.592l57.524 62.754c-5.821 10.654-9.134 22.866-9.134 35.838v20c0 8.284 6.716 15 15 15h160c8.284 0 15-6.716 15-15v-20c0-30.643-18.481-57.036-44.875-68.662zm-211.125-378.338c19.299 0 35 15.701 35 35s-15.701 35-35 35-35-15.701-35-35 15.701-35 35-35zm-65 145c0-24.813 20.187-45 45-45h40c24.813 0 45 20.187 45 45v5h-130zm226 157c19.299 0 35 15.701 35 35s-15.701 35-35 35-35-15.701-35-35 15.701-35 35-35zm-322 0c19.299 0 35 15.701 35 35s-15.701 35-35 35-35-15.701-35-35 15.701-35 35-35zm65 150h-130v-5c0-24.813 20.187-45 45-45h40c24.813 0 45 20.187 45 45zm81-145c0-8.271 6.729-15 15-15s15 6.729 15 15-6.729 15-15 15-15-6.729-15-15zm241 145h-130v-5c0-24.813 20.187-45 45-45h40c24.813 0 45 20.187 45 45z" fill="#ffffff" data-original="#000000"/></g></g></svg>
