<?xml version="1.0"?>
<svg xmlns="http://www.w3.org/2000/svg" xmlns:xlink="http://www.w3.org/1999/xlink" xmlns:svgjs="http://svgjs.com/svgjs" version="1.1" width="512" height="512" x="0" y="0" viewBox="0 0 512 512" style="enable-background:new 0 0 512 512" xml:space="preserve" class=""><g><g xmlns="http://www.w3.org/2000/svg"><path d="m455.991 220h-14.991v-85c0-3.979-1.58-7.793-4.394-10.607l-20.004-20.004c2.817-5.874 4.398-12.45 4.398-19.389 0-24.813-20.187-45-45-45s-45 20.187-45 45 20.187 45 45 45c6.939 0 13.514-1.581 19.389-4.397l15.611 15.61v78.787h-70v-5c0-40.23-25.138-74.696-60.53-88.525 12.711-13.443 20.53-31.558 20.53-51.475 0-41.355-33.645-75-75-75s-75 33.645-75 75c0 19.917 7.819 38.031 20.53 51.475-35.392 13.828-60.53 48.295-60.53 88.525v5h-54.991c-9.966 0-17.161 9.539-14.423 19.121l20 70c1.84 6.439 7.726 10.879 14.423 10.879h17.153l28.018 179.316c1.141 7.301 7.43 12.684 14.82 12.684h240c7.39 0 13.679-5.383 14.82-12.684l28.018-179.316h17.153c6.697 0 12.583-4.44 14.423-10.879l20-70c2.738-9.582-4.457-19.121-14.423-19.121zm-79.991-120c-8.271 0-15-6.729-15-15s6.729-15 15-15 15 6.729 15 15-6.728 15-15 15zm-150-70c24.813 0 45 20.187 45 45s-20.187 45-45 45-45-20.187-45-45 20.187-45 45-45zm-85 185c0-35.841 29.159-65 65-65h5v35c0 8.284 6.716 15 15 15s15-6.716 15-15v-35h5c35.841 0 65 29.159 65 65v5h-170zm222.162 267h-214.324l-25.312-162h264.948zm61.515-192h-337.354l-11.429-40h360.211z" fill="#ffffff" data-original="#000000" class=""/></g></g></svg>
