<?xml version="1.0"?>
<svg xmlns="http://www.w3.org/2000/svg" xmlns:xlink="http://www.w3.org/1999/xlink" xmlns:svgjs="http://svgjs.com/svgjs" version="1.1" width="512" height="512" x="0" y="0" viewBox="0 0 512 512" style="enable-background:new 0 0 512 512" xml:space="preserve" class=""><g><g xmlns="http://www.w3.org/2000/svg"><path d="m467 121h-16v-45c0-8.284-6.716-15-15-15h-225v-16c0-24.813-20.187-45-45-45s-45 20.187-45 45v16h-45c-8.284 0-15 6.716-15 15v225h-16c-24.813 0-45 20.187-45 45s20.187 45 45 45h16v45c0 8.284 6.716 15 15 15h225v16c0 24.813 20.187 45 45 45s45-20.187 45-45v-16h45c8.284 0 15-6.716 15-15v-225h16c24.813 0 45-20.187 45-45s-20.187-45-45-45zm-331-30c8.284 0 15-6.716 15-15v-31c0-8.271 6.729-15 15-15s15 6.729 15 15v31c0 8.284 6.716 15 15 15h45v45c0 8.284 6.716 15 15 15h30c8.271 0 15 6.729 15 15s-6.729 15-15 15h-30c-8.284 0-15 6.716-15 15v45h-30v-15c0-24.813-20.187-45-45-45s-45 20.187-45 45v15h-30v-150zm105 330h-150v-45c0-8.284-6.716-15-15-15h-31c-8.271 0-15-6.729-15-15s6.729-15 15-15h31c8.284 0 15-6.716 15-15v-45h45c8.284 0 15-6.716 15-15v-30c0-8.271 6.729-15 15-15s15 6.729 15 15v30c0 8.284 6.716 15 15 15h45v30h-15c-24.813 0-45 20.187-45 45s20.187 45 45 45h15zm135 0c-8.284 0-15 6.716-15 15v31c0 8.271-6.729 15-15 15s-15-6.729-15-15v-31c0-8.284-6.716-15-15-15h-45v-45c0-8.284-6.716-15-15-15h-30c-8.271 0-15-6.729-15-15s6.729-15 15-15h30c8.284 0 15-6.716 15-15v-45h30v15c0 24.813 20.187 45 45 45s45-20.187 45-45v-15h30v150zm91-240h-31c-8.284 0-15 6.716-15 15v45h-45c-8.284 0-15 6.716-15 15v30c0 8.271-6.729 15-15 15s-15-6.729-15-15v-30c0-8.284-6.716-15-15-15h-45v-30h15c24.813 0 45-20.187 45-45s-20.187-45-45-45h-15v-30h150v45c0 8.284 6.716 15 15 15h31c8.271 0 15 6.729 15 15s-6.729 15-15 15z" fill="#ffffff" data-original="#000000" class=""/></g></g></svg>
